<?xml version="1.0" encoding="UTF-8"?><svg xmlns="http://www.w3.org/2000/svg" xmlns:xlink="http://www.w3.org/1999/xlink" contentScriptType="application/ecmascript" contentStyleType="text/css" height="329px" preserveAspectRatio="none" style="width:755px;height:329px;" version="1.1" viewBox="0 0 755 329" width="755px" zoomAndPan="magnify">
    <defs>
        <filter height="300%" id="fuwpniv5x2nd0" width="300%" x="-1" y="-1">
            <feGaussianBlur result="blurOut" stdDeviation="2.0"/>
            <feColorMatrix in="blurOut" result="blurOut2" type="matrix" values="0 0 0 0 0 0 0 0 0 0 0 0 0 0 0 0 0 0 .4 0"/>
            <feOffset dx="4.0" dy="4.0" in="blurOut2" result="blurOut3"/>
            <feBlend in="SourceGraphic" in2="blurOut3" mode="normal"/>
        </filter>
    </defs>
    <g>
        <!--MD5=[01f91c1b1c81130bddee14512908f1c5]
cluster loja-->
        <polygon fill="#FFFFFF" filter="url(#fuwpniv5x2nd0)" points="16,6,47,6,54,29.6094,464,29.6094,464,322,16,322,16,6" style="stroke:#000000;stroke-width:1.5;"/>
        <line style="stroke:#000000;stroke-width:1.5;" x1="16" x2="54" y1="29.6094" y2="29.6094"/>
        <text fill="#000000" font-family="sans-serif" font-size="14" font-weight="bold" lengthAdjust="spacing" textLength="25" x="20" y="22.5332">loja</text>
        <!--MD5=[aa8f7b917213fcc1c2766e2d59b49067]
cluster java.lang-->
        <polygon fill="#FFFFFF" filter="url(#fuwpniv5x2nd0)" points="628,222,697,222,704,245.6094,738,245.6094,738,322,628,322,628,222" style="stroke:#000000;stroke-width:1.5;"/>
        <line style="stroke:#000000;stroke-width:1.5;" x1="628" x2="704" y1="245.6094" y2="245.6094"/>
        <text fill="#000000" font-family="sans-serif" font-size="14" font-weight="bold" lengthAdjust="spacing" textLength="63" x="632" y="238.5332">java.lang</text>
        <!--MD5=[7db3c59d38ae5b37b484eb2df9368145]
cluster java.util-->
        <polygon fill="#FFFFFF" filter="url(#fuwpniv5x2nd0)" points="488,222,549,222,556,245.6094,604,245.6094,604,322,488,322,488,222" style="stroke:#000000;stroke-width:1.5;"/>
        <line style="stroke:#000000;stroke-width:1.5;" x1="488" x2="556" y1="245.6094" y2="245.6094"/>
        <text fill="#000000" font-family="sans-serif" font-size="14" font-weight="bold" lengthAdjust="spacing" textLength="55" x="492" y="238.5332">java.util</text>
        <!--MD5=[2200dfd5907513f8f81fe82f2fab6ec5]
class loja.Funcionario-->
        <rect codeLine="1" fill="#FEFECE" filter="url(#fuwpniv5x2nd0)" height="48" id="loja.Funcionario" style="stroke:#A80036;stroke-width:1.5;" width="97" x="350.5" y="150"/>
        <ellipse cx="365.5" cy="166" fill="#A9DCDF" rx="11" ry="11" style="stroke:#A80036;stroke-width:1.0;"/>
        <path d="M367.6875,167.7656 L363.5469,167.7656 L363.125,168.7969 L363.5469,168.7969 Q364.1563,168.7969 364.4219,169.0313 Q364.6875,169.2656 364.6875,169.6563 Q364.6875,170.0313 364.4219,170.2656 Q364.1563,170.5 363.5469,170.5 L361.25,170.5 Q360.6406,170.5 360.3828,170.2656 Q360.125,170.0313 360.125,169.6406 Q360.125,169.2656 360.3984,169.0234 Q360.6719,168.7813 361.2969,168.7969 L363.9688,162.1406 L362.8594,162.1406 Q362.25,162.1406 361.9844,161.9063 Q361.7188,161.6719 361.7188,161.2813 Q361.7188,160.9063 361.9844,160.6719 Q362.25,160.4375 362.8594,160.4375 L366.5313,160.4375 L369.9219,168.7969 Q370.5156,168.7969 370.7031,168.9375 Q371.0938,169.2031 371.0938,169.6563 Q371.0938,170.0313 370.8359,170.2656 Q370.5781,170.5 369.9688,170.5 L367.6719,170.5 Q367.0625,170.5 366.7969,170.2656 Q366.5313,170.0313 366.5313,169.6406 Q366.5313,169.2656 366.7969,169.0313 Q367.0625,168.7969 367.6719,168.7969 L368.0938,168.7969 L367.6875,167.7656 Z M366.9688,166.0625 L365.6094,162.6875 L364.2344,166.0625 L366.9688,166.0625 Z " fill="#000000"/>
        <text fill="#000000" font-family="sans-serif" font-size="12" font-style="italic" lengthAdjust="spacing" textLength="65" x="379.5" y="170.9102">Funcionario</text>
        <line style="stroke:#A80036;stroke-width:1.5;" x1="351.5" x2="446.5" y1="182" y2="182"/>
        <line style="stroke:#A80036;stroke-width:1.5;" x1="351.5" x2="446.5" y1="190" y2="190"/>
        <!--MD5=[bc7c03e1a2ab14925e0b83fd4c650d83]
class loja.App-->
        <rect codeLine="4" fill="#FEFECE" filter="url(#fuwpniv5x2nd0)" height="48" id="loja.App" style="stroke:#A80036;stroke-width:1.5;" width="53" x="43.5" y="42"/>
        <ellipse cx="58.5" cy="58" fill="#ADD1B2" rx="11" ry="11" style="stroke:#A80036;stroke-width:1.0;"/>
        <path d="M61.2656,53.875 Q61.4219,53.6563 61.6094,53.5469 Q61.7969,53.4375 62.0156,53.4375 Q62.3906,53.4375 62.625,53.6953 Q62.8594,53.9531 62.8594,54.5625 L62.8594,56.0156 Q62.8594,56.625 62.625,56.8906 Q62.3906,57.1563 62.0156,57.1563 Q61.6719,57.1563 61.4688,56.9531 Q61.2656,56.7656 61.1563,56.25 Q61.1094,55.8906 60.9219,55.7031 Q60.5938,55.3281 59.9844,55.1094 Q59.375,54.8906 58.75,54.8906 Q57.9844,54.8906 57.3516,55.2188 Q56.7188,55.5469 56.2266,56.2969 Q55.7344,57.0469 55.7344,58.0781 L55.7344,59.1719 Q55.7344,60.4063 56.625,61.2266 Q57.5156,62.0469 59.1094,62.0469 Q60.0469,62.0469 60.7031,61.7969 Q61.0938,61.6406 61.5156,61.2031 Q61.7813,60.9375 61.9297,60.8594 Q62.0781,60.7813 62.2813,60.7813 Q62.6094,60.7813 62.8672,61.0391 Q63.125,61.2969 63.125,61.6406 Q63.125,61.9844 62.7813,62.3906 Q62.2813,62.9688 61.4844,63.2969 Q60.4063,63.75 59.1094,63.75 Q57.5938,63.75 56.3906,63.125 Q55.4063,62.625 54.7188,61.5547 Q54.0313,60.4844 54.0313,59.2031 L54.0313,58.0469 Q54.0313,56.7188 54.6484,55.5703 Q55.2656,54.4219 56.3594,53.8047 Q57.4531,53.1875 58.6875,53.1875 Q59.4219,53.1875 60.0703,53.3516 Q60.7188,53.5156 61.2656,53.875 Z " fill="#000000"/>
        <text fill="#000000" font-family="sans-serif" font-size="12" lengthAdjust="spacing" textLength="21" x="72.5" y="62.9102">App</text>
        <line style="stroke:#A80036;stroke-width:1.5;" x1="44.5" x2="95.5" y1="74" y2="74"/>
        <line style="stroke:#A80036;stroke-width:1.5;" x1="44.5" x2="95.5" y1="82" y2="82"/>
        <!--MD5=[826a52f4ccd40690d153c1cee1cc29d6]
class loja.Cliente-->
        <rect codeLine="5" fill="#FEFECE" filter="url(#fuwpniv5x2nd0)" height="48" id="loja.Cliente" style="stroke:#A80036;stroke-width:1.5;" width="71" x="142.5" y="150"/>
        <ellipse cx="157.5" cy="166" fill="#ADD1B2" rx="11" ry="11" style="stroke:#A80036;stroke-width:1.0;"/>
        <path d="M160.2656,161.875 Q160.4219,161.6563 160.6094,161.5469 Q160.7969,161.4375 161.0156,161.4375 Q161.3906,161.4375 161.625,161.6953 Q161.8594,161.9531 161.8594,162.5625 L161.8594,164.0156 Q161.8594,164.625 161.625,164.8906 Q161.3906,165.1563 161.0156,165.1563 Q160.6719,165.1563 160.4688,164.9531 Q160.2656,164.7656 160.1563,164.25 Q160.1094,163.8906 159.9219,163.7031 Q159.5938,163.3281 158.9844,163.1094 Q158.375,162.8906 157.75,162.8906 Q156.9844,162.8906 156.3516,163.2188 Q155.7188,163.5469 155.2266,164.2969 Q154.7344,165.0469 154.7344,166.0781 L154.7344,167.1719 Q154.7344,168.4063 155.625,169.2266 Q156.5156,170.0469 158.1094,170.0469 Q159.0469,170.0469 159.7031,169.7969 Q160.0938,169.6406 160.5156,169.2031 Q160.7813,168.9375 160.9297,168.8594 Q161.0781,168.7813 161.2813,168.7813 Q161.6094,168.7813 161.8672,169.0391 Q162.125,169.2969 162.125,169.6406 Q162.125,169.9844 161.7813,170.3906 Q161.2813,170.9688 160.4844,171.2969 Q159.4063,171.75 158.1094,171.75 Q156.5938,171.75 155.3906,171.125 Q154.4063,170.625 153.7188,169.5547 Q153.0313,168.4844 153.0313,167.2031 L153.0313,166.0469 Q153.0313,164.7188 153.6484,163.5703 Q154.2656,162.4219 155.3594,161.8047 Q156.4531,161.1875 157.6875,161.1875 Q158.4219,161.1875 159.0703,161.3516 Q159.7188,161.5156 160.2656,161.875 Z " fill="#000000"/>
        <text fill="#000000" font-family="sans-serif" font-size="12" lengthAdjust="spacing" textLength="39" x="171.5" y="170.9102">Cliente</text>
        <line style="stroke:#A80036;stroke-width:1.5;" x1="143.5" x2="212.5" y1="182" y2="182"/>
        <line style="stroke:#A80036;stroke-width:1.5;" x1="143.5" x2="212.5" y1="190" y2="190"/>
        <!--MD5=[8dac5a0ac00c41a0da14bfbf2df41aaf]
class loja.Estoque-->
        <rect codeLine="6" fill="#FEFECE" filter="url(#fuwpniv5x2nd0)" height="48" id="loja.Estoque" style="stroke:#A80036;stroke-width:1.5;" width="78" x="132" y="42"/>
        <ellipse cx="147" cy="58" fill="#ADD1B2" rx="11" ry="11" style="stroke:#A80036;stroke-width:1.0;"/>
        <path d="M149.7656,53.875 Q149.9219,53.6563 150.1094,53.5469 Q150.2969,53.4375 150.5156,53.4375 Q150.8906,53.4375 151.125,53.6953 Q151.3594,53.9531 151.3594,54.5625 L151.3594,56.0156 Q151.3594,56.625 151.125,56.8906 Q150.8906,57.1563 150.5156,57.1563 Q150.1719,57.1563 149.9688,56.9531 Q149.7656,56.7656 149.6563,56.25 Q149.6094,55.8906 149.4219,55.7031 Q149.0938,55.3281 148.4844,55.1094 Q147.875,54.8906 147.25,54.8906 Q146.4844,54.8906 145.8516,55.2188 Q145.2188,55.5469 144.7266,56.2969 Q144.2344,57.0469 144.2344,58.0781 L144.2344,59.1719 Q144.2344,60.4063 145.125,61.2266 Q146.0156,62.0469 147.6094,62.0469 Q148.5469,62.0469 149.2031,61.7969 Q149.5938,61.6406 150.0156,61.2031 Q150.2813,60.9375 150.4297,60.8594 Q150.5781,60.7813 150.7813,60.7813 Q151.1094,60.7813 151.3672,61.0391 Q151.625,61.2969 151.625,61.6406 Q151.625,61.9844 151.2813,62.3906 Q150.7813,62.9688 149.9844,63.2969 Q148.9063,63.75 147.6094,63.75 Q146.0938,63.75 144.8906,63.125 Q143.9063,62.625 143.2188,61.5547 Q142.5313,60.4844 142.5313,59.2031 L142.5313,58.0469 Q142.5313,56.7188 143.1484,55.5703 Q143.7656,54.4219 144.8594,53.8047 Q145.9531,53.1875 147.1875,53.1875 Q147.9219,53.1875 148.5703,53.3516 Q149.2188,53.5156 149.7656,53.875 Z " fill="#000000"/>
        <text fill="#000000" font-family="sans-serif" font-size="12" lengthAdjust="spacing" textLength="46" x="161" y="62.9102">Estoque</text>
        <line style="stroke:#A80036;stroke-width:1.5;" x1="133" x2="209" y1="74" y2="74"/>
        <line style="stroke:#A80036;stroke-width:1.5;" x1="133" x2="209" y1="82" y2="82"/>
        <!--MD5=[01636ef6c0ac4224442ac80ce29a8867]
class loja.Gerente-->
        <rect codeLine="7" fill="#FEFECE" filter="url(#fuwpniv5x2nd0)" height="48" id="loja.Gerente" style="stroke:#A80036;stroke-width:1.5;" width="76" x="366" y="42"/>
        <ellipse cx="381" cy="58" fill="#ADD1B2" rx="11" ry="11" style="stroke:#A80036;stroke-width:1.0;"/>
        <path d="M383.7656,53.875 Q383.9219,53.6563 384.1094,53.5469 Q384.2969,53.4375 384.5156,53.4375 Q384.8906,53.4375 385.125,53.6953 Q385.3594,53.9531 385.3594,54.5625 L385.3594,56.0156 Q385.3594,56.625 385.125,56.8906 Q384.8906,57.1563 384.5156,57.1563 Q384.1719,57.1563 383.9688,56.9531 Q383.7656,56.7656 383.6563,56.25 Q383.6094,55.8906 383.4219,55.7031 Q383.0938,55.3281 382.4844,55.1094 Q381.875,54.8906 381.25,54.8906 Q380.4844,54.8906 379.8516,55.2188 Q379.2188,55.5469 378.7266,56.2969 Q378.2344,57.0469 378.2344,58.0781 L378.2344,59.1719 Q378.2344,60.4063 379.125,61.2266 Q380.0156,62.0469 381.6094,62.0469 Q382.5469,62.0469 383.2031,61.7969 Q383.5938,61.6406 384.0156,61.2031 Q384.2813,60.9375 384.4297,60.8594 Q384.5781,60.7813 384.7813,60.7813 Q385.1094,60.7813 385.3672,61.0391 Q385.625,61.2969 385.625,61.6406 Q385.625,61.9844 385.2813,62.3906 Q384.7813,62.9688 383.9844,63.2969 Q382.9063,63.75 381.6094,63.75 Q380.0938,63.75 378.8906,63.125 Q377.9063,62.625 377.2188,61.5547 Q376.5313,60.4844 376.5313,59.2031 L376.5313,58.0469 Q376.5313,56.7188 377.1484,55.5703 Q377.7656,54.4219 378.8594,53.8047 Q379.9531,53.1875 381.1875,53.1875 Q381.9219,53.1875 382.5703,53.3516 Q383.2188,53.5156 383.7656,53.875 Z " fill="#000000"/>
        <text fill="#000000" font-family="sans-serif" font-size="12" lengthAdjust="spacing" textLength="44" x="395" y="62.9102">Gerente</text>
        <line style="stroke:#A80036;stroke-width:1.5;" x1="367" x2="441" y1="74" y2="74"/>
        <line style="stroke:#A80036;stroke-width:1.5;" x1="367" x2="441" y1="82" y2="82"/>
        <!--MD5=[0394ea6bbf8d94e13e7187530153b23a]
class loja.Produto-->
        <rect codeLine="8" fill="#FEFECE" filter="url(#fuwpniv5x2nd0)" height="48" id="loja.Produto" style="stroke:#A80036;stroke-width:1.5;" width="75" x="32.5" y="150"/>
        <ellipse cx="47.5" cy="166" fill="#ADD1B2" rx="11" ry="11" style="stroke:#A80036;stroke-width:1.0;"/>
        <path d="M50.2656,161.875 Q50.4219,161.6563 50.6094,161.5469 Q50.7969,161.4375 51.0156,161.4375 Q51.3906,161.4375 51.625,161.6953 Q51.8594,161.9531 51.8594,162.5625 L51.8594,164.0156 Q51.8594,164.625 51.625,164.8906 Q51.3906,165.1563 51.0156,165.1563 Q50.6719,165.1563 50.4688,164.9531 Q50.2656,164.7656 50.1563,164.25 Q50.1094,163.8906 49.9219,163.7031 Q49.5938,163.3281 48.9844,163.1094 Q48.375,162.8906 47.75,162.8906 Q46.9844,162.8906 46.3516,163.2188 Q45.7188,163.5469 45.2266,164.2969 Q44.7344,165.0469 44.7344,166.0781 L44.7344,167.1719 Q44.7344,168.4063 45.625,169.2266 Q46.5156,170.0469 48.1094,170.0469 Q49.0469,170.0469 49.7031,169.7969 Q50.0938,169.6406 50.5156,169.2031 Q50.7813,168.9375 50.9297,168.8594 Q51.0781,168.7813 51.2813,168.7813 Q51.6094,168.7813 51.8672,169.0391 Q52.125,169.2969 52.125,169.6406 Q52.125,169.9844 51.7813,170.3906 Q51.2813,170.9688 50.4844,171.2969 Q49.4063,171.75 48.1094,171.75 Q46.5938,171.75 45.3906,171.125 Q44.4063,170.625 43.7188,169.5547 Q43.0313,168.4844 43.0313,167.2031 L43.0313,166.0469 Q43.0313,164.7188 43.6484,163.5703 Q44.2656,162.4219 45.3594,161.8047 Q46.4531,161.1875 47.6875,161.1875 Q48.4219,161.1875 49.0703,161.3516 Q49.7188,161.5156 50.2656,161.875 Z " fill="#000000"/>
        <text fill="#000000" font-family="sans-serif" font-size="12" lengthAdjust="spacing" textLength="43" x="61.5" y="170.9102">Produto</text>
        <line style="stroke:#A80036;stroke-width:1.5;" x1="33.5" x2="106.5" y1="182" y2="182"/>
        <line style="stroke:#A80036;stroke-width:1.5;" x1="33.5" x2="106.5" y1="190" y2="190"/>
        <!--MD5=[ba64aaf295be1ccf90f654e81223a07a]
class loja.Venda-->
        <rect codeLine="9" fill="#FEFECE" filter="url(#fuwpniv5x2nd0)" height="48" id="loja.Venda" style="stroke:#A80036;stroke-width:1.5;" width="67" x="248.5" y="150"/>
        <ellipse cx="263.5" cy="166" fill="#ADD1B2" rx="11" ry="11" style="stroke:#A80036;stroke-width:1.0;"/>
        <path d="M266.2656,161.875 Q266.4219,161.6563 266.6094,161.5469 Q266.7969,161.4375 267.0156,161.4375 Q267.3906,161.4375 267.625,161.6953 Q267.8594,161.9531 267.8594,162.5625 L267.8594,164.0156 Q267.8594,164.625 267.625,164.8906 Q267.3906,165.1563 267.0156,165.1563 Q266.6719,165.1563 266.4688,164.9531 Q266.2656,164.7656 266.1563,164.25 Q266.1094,163.8906 265.9219,163.7031 Q265.5938,163.3281 264.9844,163.1094 Q264.375,162.8906 263.75,162.8906 Q262.9844,162.8906 262.3516,163.2188 Q261.7188,163.5469 261.2266,164.2969 Q260.7344,165.0469 260.7344,166.0781 L260.7344,167.1719 Q260.7344,168.4063 261.625,169.2266 Q262.5156,170.0469 264.1094,170.0469 Q265.0469,170.0469 265.7031,169.7969 Q266.0938,169.6406 266.5156,169.2031 Q266.7813,168.9375 266.9297,168.8594 Q267.0781,168.7813 267.2813,168.7813 Q267.6094,168.7813 267.8672,169.0391 Q268.125,169.2969 268.125,169.6406 Q268.125,169.9844 267.7813,170.3906 Q267.2813,170.9688 266.4844,171.2969 Q265.4063,171.75 264.1094,171.75 Q262.5938,171.75 261.3906,171.125 Q260.4063,170.625 259.7188,169.5547 Q259.0313,168.4844 259.0313,167.2031 L259.0313,166.0469 Q259.0313,164.7188 259.6484,163.5703 Q260.2656,162.4219 261.3594,161.8047 Q262.4531,161.1875 263.6875,161.1875 Q264.4219,161.1875 265.0703,161.3516 Q265.7188,161.5156 266.2656,161.875 Z " fill="#000000"/>
        <text fill="#000000" font-family="sans-serif" font-size="12" lengthAdjust="spacing" textLength="35" x="277.5" y="170.9102">Venda</text>
        <line style="stroke:#A80036;stroke-width:1.5;" x1="249.5" x2="314.5" y1="182" y2="182"/>
        <line style="stroke:#A80036;stroke-width:1.5;" x1="249.5" x2="314.5" y1="190" y2="190"/>
        <!--MD5=[b81a8b3217b280c9caa0d8ffe38bcb7f]
class loja.Pessoa-->
        <rect codeLine="10" fill="#FEFECE" filter="url(#fuwpniv5x2nd0)" height="48" id="loja.Pessoa" style="stroke:#A80036;stroke-width:1.5;" width="73" x="251.5" y="258"/>
        <ellipse cx="266.5" cy="274" fill="#B4A7E5" rx="11" ry="11" style="stroke:#A80036;stroke-width:1.0;"/>
        <path d="M267.4531,270.6406 L267.4531,277.2969 L269.1719,277.2969 Q269.7813,277.2969 270.0469,277.5313 Q270.3125,277.7656 270.3125,278.1563 Q270.3125,278.5313 270.0469,278.7656 Q269.7813,279 269.1719,279 L264.0313,279 Q263.4219,279 263.1563,278.7656 Q262.8906,278.5313 262.8906,278.1406 Q262.8906,277.7656 263.1563,277.5313 Q263.4219,277.2969 264.0313,277.2969 L265.75,277.2969 L265.75,270.6406 L264.0313,270.6406 Q263.4219,270.6406 263.1563,270.4063 Q262.8906,270.1719 262.8906,269.7813 Q262.8906,269.4063 263.1563,269.1719 Q263.4219,268.9375 264.0313,268.9375 L269.1719,268.9375 Q269.7813,268.9375 270.0469,269.1719 Q270.3125,269.4063 270.3125,269.7813 Q270.3125,270.1719 270.0469,270.4063 Q269.7813,270.6406 269.1719,270.6406 L267.4531,270.6406 Z " fill="#000000"/>
        <text fill="#000000" font-family="sans-serif" font-size="12" font-style="italic" lengthAdjust="spacing" textLength="41" x="280.5" y="278.9102">Pessoa</text>
        <line style="stroke:#A80036;stroke-width:1.5;" x1="252.5" x2="323.5" y1="290" y2="290"/>
        <line style="stroke:#A80036;stroke-width:1.5;" x1="252.5" x2="323.5" y1="298" y2="298"/>
        <!--MD5=[3c78a2fa643d9223b1f8ad930e883961]
class java.lang.Override-->
        <rect codeLine="2" fill="#FEFECE" filter="url(#fuwpniv5x2nd0)" height="48" id="java.lang.Override" style="stroke:#A80036;stroke-width:1.5;" width="78" x="644" y="258"/>
        <ellipse cx="659" cy="274" fill="#E3664A" rx="11" ry="11" style="stroke:#A80036;stroke-width:1.0;"/>
        <path d="M661.3438,271.5781 L661.3438,271.0625 Q661.3438,270.2344 660.8672,269.7344 Q660.3906,269.2344 659.6406,269.2344 Q659.0469,269.2344 658.5156,269.6328 Q657.9844,270.0313 657.7188,270.6563 Q657.25,271.75 657.25,272.8594 L657.25,275.375 Q657.25,277.2969 658.1094,278.4219 Q658.6719,279.1719 659.6875,279.1719 Q660.2344,279.1719 660.6797,279.0313 Q661.125,278.8906 661.375,278.6406 Q661.625,278.3906 661.8438,278.3906 Q662.1094,278.3906 662.2969,278.5781 Q662.4844,278.7656 662.4844,279.0313 Q662.4844,279.4531 661.9063,279.8438 Q661.0781,280.4063 659.6406,280.4063 Q658.5469,280.4063 657.8281,279.9063 Q656.9063,279.2656 656.4531,278 Q656,276.7344 656,275.5 L656,272.7656 Q656,270.7813 656.9844,269.3828 Q657.9688,267.9844 659.6094,267.9844 Q660.3594,267.9844 661.0078,268.2891 Q661.6563,268.5938 662.125,269.3594 Q662.5938,270.125 662.5938,271.0625 L662.5938,275.5938 Q662.9531,275.7656 662.9531,276.1563 Q662.9531,276.4375 662.7578,276.6172 Q662.5625,276.7969 662.0938,276.7969 L661.3438,276.7969 L661.3438,276.75 Q660.9531,276.8125 660.7656,276.8125 Q659.7656,276.8125 659.0234,276.0703 Q658.2813,275.3281 658.2813,274.3281 Q658.2813,273.2656 659.1016,272.4688 Q659.9219,271.6719 661.3438,271.5781 Z M661.3438,272.8594 Q660.4531,272.9531 659.9922,273.375 Q659.5313,273.7969 659.5313,274.3438 Q659.5313,274.8281 659.9141,275.1719 Q660.2969,275.5156 660.9375,275.5156 Q661.0625,275.5156 661.3438,275.5 L661.3438,272.8594 Z " fill="#000000"/>
        <text fill="#000000" font-family="sans-serif" font-size="12" lengthAdjust="spacing" textLength="46" x="673" y="278.9102">Override</text>
        <line style="stroke:#A80036;stroke-width:1.5;" x1="645" x2="721" y1="290" y2="290"/>
        <line style="stroke:#A80036;stroke-width:1.5;" x1="645" x2="721" y1="298" y2="298"/>
        <!--MD5=[0fe608062bc1c13ed4fe34d5799bb32b]
class java.util.Calendar-->
        <rect codeLine="3" fill="#FEFECE" filter="url(#fuwpniv5x2nd0)" height="48" id="java.util.Calendar" style="stroke:#A80036;stroke-width:1.5;" width="83" x="504.5" y="258"/>
        <ellipse cx="519.5" cy="274" fill="#ADD1B2" rx="11" ry="11" style="stroke:#A80036;stroke-width:1.0;"/>
        <path d="M522.2656,269.875 Q522.4219,269.6563 522.6094,269.5469 Q522.7969,269.4375 523.0156,269.4375 Q523.3906,269.4375 523.625,269.6953 Q523.8594,269.9531 523.8594,270.5625 L523.8594,272.0156 Q523.8594,272.625 523.625,272.8906 Q523.3906,273.1563 523.0156,273.1563 Q522.6719,273.1563 522.4688,272.9531 Q522.2656,272.7656 522.1563,272.25 Q522.1094,271.8906 521.9219,271.7031 Q521.5938,271.3281 520.9844,271.1094 Q520.375,270.8906 519.75,270.8906 Q518.9844,270.8906 518.3516,271.2188 Q517.7188,271.5469 517.2266,272.2969 Q516.7344,273.0469 516.7344,274.0781 L516.7344,275.1719 Q516.7344,276.4063 517.625,277.2266 Q518.5156,278.0469 520.1094,278.0469 Q521.0469,278.0469 521.7031,277.7969 Q522.0938,277.6406 522.5156,277.2031 Q522.7813,276.9375 522.9297,276.8594 Q523.0781,276.7813 523.2813,276.7813 Q523.6094,276.7813 523.8672,277.0391 Q524.125,277.2969 524.125,277.6406 Q524.125,277.9844 523.7813,278.3906 Q523.2813,278.9688 522.4844,279.2969 Q521.4063,279.75 520.1094,279.75 Q518.5938,279.75 517.3906,279.125 Q516.4063,278.625 515.7188,277.5547 Q515.0313,276.4844 515.0313,275.2031 L515.0313,274.0469 Q515.0313,272.7188 515.6484,271.5703 Q516.2656,270.4219 517.3594,269.8047 Q518.4531,269.1875 519.6875,269.1875 Q520.4219,269.1875 521.0703,269.3516 Q521.7188,269.5156 522.2656,269.875 Z " fill="#000000"/>
        <text fill="#000000" font-family="sans-serif" font-size="12" lengthAdjust="spacing" textLength="51" x="533.5" y="278.9102">Calendar</text>
        <line style="stroke:#A80036;stroke-width:1.5;" x1="505.5" x2="586.5" y1="290" y2="290"/>
        <line style="stroke:#A80036;stroke-width:1.5;" x1="505.5" x2="586.5" y1="298" y2="298"/>
        <!--MD5=[52fe93040fbc94d117c8c9c05b23088d]
link loja.Funcionario to java.lang.Override-->
        <path codeLine="11" d="M447.56,177.26 C490.53,180.84 553.99,190.11 604,214 C624.49,223.79 643.99,240.23 658.49,254.37 " fill="none" id="loja.Funcionario-to-java.lang.Override" style="stroke:#A80036;stroke-width:1.0;stroke-dasharray:7.0,7.0;"/>
        <polygon fill="#A80036" points="662.07,257.91,658.4788,248.7392,658.5131,254.396,652.8564,254.4302,662.07,257.91" style="stroke:#A80036;stroke-width:1.0;"/>
        <!--MD5=[9465ab211be4f7b15e718893295fc15b]
link loja.Funcionario to loja.Pessoa-->
        <path codeLine="12" d="M374.91,198 C360.9,211.38 342.91,228.57 326.93,243.83 " fill="none" id="loja.Funcionario-to-loja.Pessoa" style="stroke:#A80036;stroke-width:1.0;"/>
        <polygon fill="none" points="331.72,248.93,312.42,257.68,322.05,238.8,331.72,248.93" style="stroke:#A80036;stroke-width:1.0;"/>
        <!--MD5=[a99b17755552fc3408f11d339c531d6c]
link loja.Cliente to java.lang.Override-->
        <path codeLine="13" d="M213.61,192.54 C219.31,194.74 225.23,196.67 231,198 C311.85,216.6 526.74,183.76 604,214 C625.61,222.46 645.51,239.42 659.93,254.16 " fill="none" id="loja.Cliente-to-java.lang.Override" style="stroke:#A80036;stroke-width:1.0;stroke-dasharray:7.0,7.0;"/>
        <polygon fill="#A80036" points="663.48,257.85,660.1305,248.5882,660.0165,254.2439,654.3607,254.1299,663.48,257.85" style="stroke:#A80036;stroke-width:1.0;"/>
        <!--MD5=[927f12ef3a725aa8dac6e4d2862b1a16]
link loja.Cliente to java.util.Calendar-->
        <path codeLine="14" d="M213.64,192.41 C219.34,194.62 225.25,196.6 231,198 C331.85,222.57 367.48,175.81 464,214 C485.9,222.67 506.43,239.45 521.46,254.04 " fill="none" id="loja.Cliente-to-java.util.Calendar" style="stroke:#A80036;stroke-width:1.0;stroke-dasharray:7.0,7.0;"/>
        <polygon fill="#A80036" points="525.16,257.7,521.5688,248.5292,521.6031,254.186,515.9464,254.2202,525.16,257.7" style="stroke:#A80036;stroke-width:1.0;"/>
        <!--MD5=[de3746b62fed85e9c424df60a3ec978d]
link loja.Cliente to loja.Pessoa-->
        <path codeLine="15" d="M201.87,198 C215.61,211.24 233.22,228.21 248.93,243.35 " fill="none" id="loja.Cliente-to-loja.Pessoa" style="stroke:#A80036;stroke-width:1.0;"/>
        <polygon fill="none" points="254.25,238.76,263.8,257.68,244.54,248.84,254.25,238.76" style="stroke:#A80036;stroke-width:1.0;"/>
        <!--MD5=[f18fad7a3c8fe81c496db7253e340924]
link loja.Gerente to loja.Funcionario-->
        <path codeLine="16" d="M402.92,90 C402.37,101.59 401.69,116.03 401.05,129.6 " fill="none" id="loja.Gerente-to-loja.Funcionario" style="stroke:#A80036;stroke-width:1.0;"/>
        <polygon fill="none" points="408.03,130.03,400.1,149.68,394.05,129.37,408.03,130.03" style="stroke:#A80036;stroke-width:1.0;"/>
        <!--MD5=[4edcc416ca89e7aede7b924212912157]
link loja.Gerente to java.lang.Override-->
        <path codeLine="17" d="M437.09,90.25 C477.18,118.67 546.52,168.59 604,214 C620.38,226.94 638.15,241.92 652.68,254.43 " fill="none" id="loja.Gerente-to-java.lang.Override" style="stroke:#A80036;stroke-width:1.0;stroke-dasharray:7.0,7.0;"/>
        <polygon fill="#A80036" points="656.69,257.89,652.4957,248.9789,652.9068,254.6208,647.265,255.0319,656.69,257.89" style="stroke:#A80036;stroke-width:1.0;"/>
        <!--MD5=[04a4ffc96911851cbf17354056e970a0]
link loja.App to loja.Estoque-->
        <!--MD5=[30fd283b2d974e3617d00db4426d4059]
link loja.App to loja.Produto-->
        <!--MD5=[b1a5e4d5bf5351d53b7006a74053473d]
link loja.Produto to loja.Venda-->
        <!--MD5=[f0f1259c3771a13498d77291b91effdd]
@startuml
abstract class loja.Funcionario
annotation java.lang.Override
class java.util.Calendar
class loja.App
class loja.Cliente
class loja.Estoque
class loja.Gerente
class loja.Produto
class loja.Venda
interface loja.Pessoa
loja.Funcionario ..> java.lang.Override
loja.Funcionario - -|> loja.Pessoa
loja.Cliente ..> java.lang.Override
loja.Cliente ..> java.util.Calendar
loja.Cliente - -|> loja.Pessoa
loja.Gerente - -|> loja.Funcionario
loja.Gerente ..> java.lang.Override
@enduml

PlantUML version 1.2021.3(Mon Mar 22 13:53:19 BRT 2021)
(GPL source distribution)
Java Runtime: Java(TM) SE Runtime Environment
JVM: Java HotSpot(TM) 64-Bit Server VM
Default Encoding: Cp1252
Language: pt
Country: BR
-->
    </g>
</svg>
